<?xml version="1.0" encoding="UTF-8" standalone="no"?><!DOCTYPE svg PUBLIC "-//W3C//DTD SVG 1.1//EN" "http://www.w3.org/Graphics/SVG/1.1/DTD/svg11.dtd">
<svg width="16" height="16" viewBox="0 0 16 16" version="1.1" xmlns="http://www.w3.org/2000/svg"  xml:space="preserve" style="fill-rule:evenodd;clip-rule:evenodd;stroke-miterlimit:1.41421;"><g id="Layer_x0020_1"><path d="M0.96,8c0,3.904 3.136,7.04 7.04,7.04c3.904,0 7.04,-3.136 7.04,-7.04c0,-3.904 -3.136,-7.04 -7.04,-7.04c-3.904,0 -7.04,3.136 -7.04,7.04Z" style="fill:#6c6;stroke-width:0.48px;stroke:#434242;"/><path d="M9.376,3.84l0,2.816l2.784,0c0.16,0 0.32,0.128 0.32,0.32l0,2.048c0,0.192 -0.16,0.352 -0.32,0.352l-2.784,0l0,2.784c0,0.16 -0.16,0.32 -0.352,0.32l-2.048,0c-0.192,0 -0.32,-0.16 -0.32,-0.32l0,-2.784l-2.816,0c-0.16,0 -0.32,-0.16 -0.32,-0.352l0,-2.048c0,-0.192 0.16,-0.32 0.32,-0.32l2.816,0l0,-2.816c0,-0.16 0.128,-0.32 0.32,-0.32l2.048,0c0.192,0 0.352,0.16 0.352,0.32Z" style="fill:#fff;stroke-width:0.32px;stroke:#434242;"/></g></svg>