<?xml version="1.0" encoding="UTF-8" standalone="no"?><!--
  ~ Copyright Hand China Co.,Ltd.
  -->

<!DOCTYPE svg PUBLIC "-//W3C//DTD SVG 1.1//EN" "http://www.w3.org/Graphics/SVG/1.1/DTD/svg11.dtd"><svg width="16" height="16" viewBox="0 0 16 16" version="1.1" xmlns="http://www.w3.org/2000/svg" xmlns:xlink="http://www.w3.org/1999/xlink" xml:space="preserve" style="fill-rule:evenodd;clip-rule:evenodd;stroke-linejoin:round;stroke-miterlimit:1.41421;"><circle id="Layer_1_1_" cx="8" cy="8.236" r="7.594" style="fill:#26a5d0;"/><g id="Layer_2"><g><g><path d="M4.569,12.669c-0.982,0 -1.781,-0.799 -1.781,-1.781l0,-6.62c0,-0.982 0.799,-1.781 1.781,-1.781l6.62,0c0.982,0 1.781,0.799 1.781,1.781l0,6.62c0,0.982 -0.799,1.781 -1.781,1.781l-6.62,0l0,0Z" style="fill:#26a5d0;fill-opacity:0.7;fill-rule:nonzero;"/><path d="M11.189,2.862c0.773,0 1.406,0.633 1.406,1.406l0,6.62c0,0.773 -0.633,1.406 -1.406,1.406l-6.62,0c-0.773,0 -1.406,-0.633 -1.406,-1.406l0,-6.62c0,-0.773 0.633,-1.406 1.406,-1.406l6.62,0M11.189,2.112l-6.62,0c-1.189,0 -2.156,0.967 -2.156,2.156l0,6.62c0,1.189 0.967,2.156 2.156,2.156l6.62,0c1.189,0 2.156,-0.967 2.156,-2.156l0,-6.62c0,-1.189 -0.967,-2.156 -2.156,-2.156Z" style="fill:#fff;fill-rule:nonzero;"/></g><path d="M14,3.645l-6.823,7.446l-3.586,-3.584l-0.002,-3.826l3.587,3.573l6.823,-6.237l0.001,2.628Z" style="fill:#d51920;fill-rule:nonzero;"/><path d="M13.999,1.017l-6.823,6.237l-3.587,-3.573l0,0.531l3.409,3.396l6.824,-6.237l0.001,2.468l0.177,-0.194l-0.001,-2.628Z" style="fill:#ea7e73;fill-rule:nonzero;"/><path d="M7.266,10.825l-3.587,-3.584l-0.002,-3.472l-0.088,-0.088l0.002,3.826l3.587,3.584l6.822,-7.446l0,-0.169l-6.734,7.349Z" style="fill:#d51920;fill-rule:nonzero;"/></g></g></svg>