<?xml version="1.0" encoding="UTF-8" standalone="no"?><!DOCTYPE svg PUBLIC "-//W3C//DTD SVG 1.1//EN" "http://www.w3.org/Graphics/SVG/1.1/DTD/svg11.dtd">
<svg width="16" height="16" viewBox="0 0 16 16" version="1.1" xmlns="http://www.w3.org/2000/svg"  xml:space="preserve" style="fill-rule:evenodd;clip-rule:evenodd;stroke-miterlimit:1.41421;"><g id="Layer_x0020_1"><path d="M3.008,3.008c-2.72,2.752 -2.72,7.232 0,9.984c2.752,2.72 7.232,2.72 9.984,0c2.72,-2.752 2.72,-7.232 0,-9.984c-2.752,-2.72 -7.232,-2.72 -9.984,0Z" style="fill:#ff3a00;stroke-width:0.48px;stroke:#434242;"/><path d="M11.904,6.016l-1.984,1.984l1.984,1.984c0.128,0.128 0.128,0.32 0,0.448l-1.472,1.472c-0.128,0.128 -0.32,0.128 -0.448,0l-1.984,-1.984l-1.984,1.984c-0.128,0.128 -0.32,0.128 -0.448,0l-1.472,-1.472c-0.128,-0.128 -0.128,-0.32 0,-0.448l1.984,-1.984l-1.984,-1.984c-0.128,-0.128 -0.128,-0.32 0,-0.448l1.472,-1.472c0.128,-0.128 0.32,-0.128 0.448,0l1.984,1.984l1.984,-1.984c0.128,-0.128 0.32,-0.128 0.448,0l1.472,1.472c0.128,0.128 0.128,0.32 0,0.448Z" style="fill:#fff;stroke-width:0.32px;stroke:#434242;"/></g></svg>