<?xml version="1.0" encoding="UTF-8" standalone="no"?><!DOCTYPE svg PUBLIC "-//W3C//DTD SVG 1.1//EN" "http://www.w3.org/Graphics/SVG/1.1/DTD/svg11.dtd">
<svg width="16" height="16" viewBox="0 0 16 16" version="1.1" xmlns="http://www.w3.org/2000/svg"  xml:space="preserve" style="fill-rule:evenodd;clip-rule:evenodd;stroke-miterlimit:1.41421;"><g id="Layer_x0020_1"><path d="M1.92,12.48l12.16,0c0.352,0 0.64,0.288 0.64,0.64l0,1.28c0,0.352 -0.288,0.64 -0.64,0.64l-12.16,0c-0.352,0 -0.64,-0.288 -0.64,-0.64l0,-1.28c0,-0.352 0.288,-0.64 0.64,-0.64ZM12.189,13.12l1.28,0c0.176,0 0.32,0.144 0.32,0.32c0,0.176 -0.144,0.32 -0.32,0.32l-1.28,0c-0.176,0 -0.32,-0.144 -0.32,-0.32c0,-0.176 0.144,-0.32 0.32,-0.32ZM9.6,13.12l1.28,0c0.176,0 0.32,0.144 0.32,0.32c0,0.176 -0.144,0.32 -0.32,0.32l-1.28,0c-0.176,0 -0.32,-0.144 -0.32,-0.32c0,-0.176 0.144,-0.32 0.32,-0.32Z" style="fill:#434242;"/><path d="M8.643,11.197l3.2,-3.2c0.16,-0.16 0.32,-0.32 0.32,-0.64c0,-0.32 -0.32,-0.64 -0.64,-0.64l-1.6,0c-0.16,0 -0.32,-0.16 -0.32,-0.32l0,-4.797c0,-0.16 -0.16,-0.32 -0.32,-0.32l-2.56,0c-0.16,0 -0.32,0.16 -0.32,0.32l0,4.797c0,0.16 -0.16,0.32 -0.32,0.32l-1.6,0c-0.32,0 -0.64,0.32 -0.64,0.64c0,0.32 0.16,0.48 0.32,0.64l3.2,3.2c0.432,0.432 0.848,0.432 1.28,0Z" style="fill:#008bff;stroke-width:0.32px;stroke:#434242;"/></g></svg>