<?xml version="1.0" encoding="UTF-8" standalone="no"?><!--
  ~ Copyright Hand China Co.,Ltd.
  -->

<!DOCTYPE svg PUBLIC "-//W3C//DTD SVG 1.1//EN" "http://www.w3.org/Graphics/SVG/1.1/DTD/svg11.dtd">
<svg width="16" height="16" viewBox="0 0 16 16" version="1.1" xmlns="http://www.w3.org/2000/svg"  xml:space="preserve" style="fill-rule:evenodd;clip-rule:evenodd;stroke-linejoin:round;stroke-miterlimit:1.41421;"><g id="Filled"><g><circle cx="5.74" cy="2.942" r="2.441" style="fill:#fff;"/><path d="M5.74,1c1.071,0 1.941,0.871 1.941,1.942c0,1.07 -0.871,1.941 -1.941,1.941c-1.07,0 -1.942,-0.871 -1.942,-1.942c0.001,-1.07 0.872,-1.941 1.942,-1.941M5.74,0c-1.625,0 -2.942,1.317 -2.942,2.942c0.001,1.624 1.318,2.941 2.942,2.941c1.625,0 2.941,-1.317 2.941,-2.942c0,-1.624 -1.316,-2.941 -2.941,-2.941Z" style="fill:#000;fill-rule:nonzero;"/></g><g><path d="M1.617,11.093c0.267,-2.287 2.029,-4.072 4.123,-4.072c2.094,0 3.857,1.785 4.124,4.072l-8.248,0Z" style="fill:#fff;fill-rule:nonzero;"/><path d="M5.74,7.522c1.668,-0.001 3.098,1.307 3.527,3.071l-7.054,0c0.43,-1.764 1.859,-3.072 3.527,-3.072M5.74,6.522c-2.543,-0.001 -4.607,2.261 -4.658,5.071l9.316,0c-0.051,-2.81 -2.114,-5.072 -4.658,-5.072Z" style="fill:#000;fill-rule:nonzero;"/></g><g><path d="M6.733,12.933l5.122,-5.123l2.501,2.5l-5.123,5.124l-2.558,0.055l0.057,-2.556Z" style="fill:#6fd4f7;fill-rule:nonzero;"/><path d="M11.856,8.517l1.793,1.793l-4.627,4.628l-1.835,0.04l0.041,-1.833l4.628,-4.628M11.856,7.249c-0.091,0 -0.181,0.034 -0.249,0.102l-5.37,5.37l-0.073,3.279l3.281,-0.071l5.37,-5.37c0.137,-0.136 0.137,-0.36 0,-0.496l-2.711,-2.711c-0.068,-0.069 -0.158,-0.103 -0.248,-0.103Z" style="fill:#000;fill-rule:nonzero;"/></g></g></svg>