<?xml version="1.0" encoding="UTF-8" standalone="no"?><!DOCTYPE svg PUBLIC "-//W3C//DTD SVG 1.1//EN" "http://www.w3.org/Graphics/SVG/1.1/DTD/svg11.dtd">
<svg width="16" height="16" viewBox="0 0 16 16" version="1.1" xmlns="http://www.w3.org/2000/svg"  xml:space="preserve" style="fill-rule:evenodd;clip-rule:evenodd;stroke-linecap:round;stroke-linejoin:round;stroke-miterlimit:1.41421;"><g id="Layer_x0020_1"><path d="M6.08,0.96l4.48,0c0.352,0 0.64,0.288 0.64,0.64l0,12.8c0,0.352 -0.288,0.64 -0.64,0.64l-8.96,0c-0.352,0 -0.64,-0.288 -0.64,-0.64l0,-8.32l5.12,-5.12Z" style="fill:#fff;stroke-width:0.32px;stroke:#434242;"/><path d="M5.12,6.08l-4.16,0l5.12,-5.12l0,4.16c0,0.544 -0.448,0.96 -0.96,0.96Z" style="fill:#fefefe;stroke-width:0.32px;stroke:#434242;"/><path d="M12.8,2.816l2.048,2.016c0.192,0.192 0.192,0.512 0,0.704l-6.464,6.432l-4.064,1.376l1.344,-4.096l6.464,-6.432c0.192,-0.192 0.48,-0.192 0.672,0Z" style="fill:#434242;stroke-width:0.48px;stroke-linecap:butt;stroke:#434242;"/><path d="M10.882,4.054l2.715,2.715l0.451,-0.451l-2.715,-2.714l-0.451,0.45Z" style="fill:#979798;"/><path d="M5.664,9.248l2.72,2.72l-4.064,1.376l1.344,-4.096Z" style="fill:#cdcdce;"/><path d="M13.597,6.769l-0.905,-0.905l-5.203,5.203l0.905,0.905l5.203,-5.203Z" style="fill:#0075d8;"/><path d="M12.692,5.864l-0.905,-0.905l-5.204,5.203l0.905,0.905l5.204,-5.203Z" style="fill:#008bff;"/><path d="M11.787,4.959l-0.905,-0.905l-5.204,5.203l0.905,0.905l5.204,-5.203Z" style="fill:#289cff;"/><path d="M4.32,13.344l2.112,-0.736c-0.096,-0.32 -0.288,-0.608 -0.544,-0.864c-0.224,-0.256 -0.544,-0.416 -0.864,-0.544l-0.704,2.144Z" style="fill:#434242;stroke-width:0.16px;stroke-linecap:butt;stroke-linejoin:miter;stroke:#434242;"/></g></svg>