<?xml version="1.0" encoding="UTF-8" standalone="no"?><!DOCTYPE svg PUBLIC "-//W3C//DTD SVG 1.1//EN" "http://www.w3.org/Graphics/SVG/1.1/DTD/svg11.dtd">
<svg width="16" height="16" viewBox="0 0 16 16" version="1.1" xmlns="http://www.w3.org/2000/svg"  xml:space="preserve" style="fill-rule:evenodd;clip-rule:evenodd;stroke-linejoin:round;stroke-miterlimit:1.41421;"><g><path d="M1.76,0.992l11.68,0l1.6,1.6l0,11.68c0,0.416 -0.352,0.8 -0.8,0.8l-12.48,0c-0.448,0 -0.8,-0.384 -0.8,-0.8l0,-12.48c0,-0.448 0.352,-0.8 0.8,-0.8Z" style="fill:#9c9;stroke-width:0.32px;stroke:#434242;"/><path d="M3.52,0.992l8.96,0l0,4c0,0.256 -0.224,0.48 -0.48,0.48l-8,0c-0.256,0 -0.48,-0.224 -0.48,-0.48l0,-4Z" style="fill:url(#_Linear1);stroke-width:0.32px;stroke:#434242;"/><rect x="2.88" y="8" width="10.24" height="7.072" style="fill:url(#_Linear2);stroke-width:0.32px;stroke:#434242;"/><path d="M9.28,0.928l2.24,0l0,3.264c0,0.064 -0.064,0.16 -0.16,0.16l-1.92,0c-0.096,0 -0.16,-0.096 -0.16,-0.16l0,-3.264Z" style="fill:#434242;"/><path d="M11.84,9.44l-7.68,0" style="fill:none;stroke-width:0.48px;stroke-linecap:round;stroke-linejoin:miter;stroke:#434242;"/><path d="M11.84,10.72l-7.68,0" style="fill:none;stroke-width:0.48px;stroke-linecap:round;stroke-linejoin:miter;stroke:#434242;"/><path d="M11.84,12l-7.68,0" style="fill:none;stroke-width:0.48px;stroke-linecap:round;stroke-linejoin:miter;stroke:#434242;"/><path d="M11.84,13.28l-7.68,0" style="fill:none;stroke-width:0.48px;stroke-linecap:round;stroke-linejoin:miter;stroke:#434242;"/></g><defs><linearGradient id="_Linear1" x1="0" y1="0" x2="1" y2="0" gradientUnits="userSpaceOnUse" gradientTransform="matrix(-2.20307,-1.9049,1.9049,-2.20307,9.10147,4.17462)"><stop offset="0%" style="stop-color:#ebecec;stop-opacity:1"/><stop offset="100%" style="stop-color:#fefefe;stop-opacity:1"/></linearGradient><linearGradient id="_Linear2" x1="0" y1="0" x2="1" y2="0" gradientUnits="userSpaceOnUse" gradientTransform="matrix(3.45656e-16,-5.64499,5.64499,3.45656e-16,7.9999,14.3565)"><stop offset="0%" style="stop-color:#ebecec;stop-opacity:1"/><stop offset="100%" style="stop-color:#fefefe;stop-opacity:1"/></linearGradient></defs></svg>