<?xml version="1.0" encoding="UTF-8" standalone="no"?><!--
  ~ Copyright Hand China Co.,Ltd.
  -->

<!DOCTYPE svg PUBLIC "-//W3C//DTD SVG 1.1//EN" "http://www.w3.org/Graphics/SVG/1.1/DTD/svg11.dtd">
<svg width="16" height="16" viewBox="0 0 16 16" version="1.1" xmlns="http://www.w3.org/2000/svg"  xml:space="preserve" style="fill-rule:evenodd;clip-rule:evenodd;stroke-linejoin:round;stroke-miterlimit:1.41421;"><path d="M13.379,3.93l-1.89,0l0,-1.745c0,-0.642 -0.521,-1.163 -1.163,-1.163l-4.652,0c-0.642,0 -1.163,0.521 -1.163,1.163l0,1.745l-1.89,0c-0.401,0 -0.726,0.325 -0.726,0.727c0,0.401 0.325,0.726 0.726,0.726l0.437,0l0,8.432c0,0.642 0.52,1.163 1.162,1.163l7.56,0c0.642,0 1.162,-0.521 1.162,-1.163l0,-8.432l0.437,0c0.401,0 0.727,-0.325 0.727,-0.726c-0.001,-0.402 -0.326,-0.727 -0.727,-0.727ZM10.035,3.93l-4.07,0l0,-0.814c0,-0.355 0.285,-0.64 0.64,-0.64l2.79,0c0.355,0 0.64,0.285 0.64,0.64l0,0.814l0,0ZM5.965,5.965l0,6.977c0,0.32 -0.262,0.582 -0.582,0.582c-0.319,0 -0.581,-0.262 -0.581,-0.582l0,-6.977c0,-0.32 0.262,-0.582 0.581,-0.582c0.32,0 0.582,0.262 0.582,0.582ZM8.582,5.965l0,6.977c0,0.32 -0.262,0.582 -0.582,0.582c-0.32,0 -0.581,-0.262 -0.581,-0.582l0,-6.977c0,-0.32 0.261,-0.582 0.581,-0.582c0.32,0 0.582,0.262 0.582,0.582ZM11.198,5.965l0,6.977c0,0.32 -0.262,0.582 -0.581,0.582c-0.32,0 -0.582,-0.262 -0.582,-0.582l0,-6.977c0,-0.32 0.262,-0.582 0.582,-0.582c0.319,0 0.581,0.262 0.581,0.582Z" style="fill:#d82626;"/></svg>